<svg xmlns="http://www.w3.org/2000/svg" width="40" height="40" fill="none" viewBox="0 0 40 40"><path fill="#000" d="M0 2C0 0.895431 0.895431 0 2 0H38C39.1046 0 40 0.895431 40 2V38C40 39.1046 39.1046 40 38 40H2C0.895431 40 0 39.1046 0 38V2Z"/><path fill="#00E151" d="M20.2043 11.8571C20.6628 11.401 21.4061 11.401 21.8645 11.8571C22.323 12.3131 22.323 13.0526 21.8645 13.5087L13.2996 22.0291C12.8412 22.4852 12.0978 22.4852 11.6394 22.0291C11.1809 21.573 11.1809 20.8336 11.6394 20.3775L20.2043 11.8571Z"/><path fill="#D9D9D9" d="M24.3764 13.5287C24.8347 13.0728 25.5779 13.0728 26.0362 13.5287C26.4945 13.9847 26.4945 14.7239 26.0362 15.1799L13.935 27.2182C13.4766 27.6742 12.7335 27.6742 12.2752 27.2182C11.8168 26.7623 11.8168 26.023 12.2752 25.5671L24.3764 13.5287Z"/><path fill="#00E151" d="M14.9726 11.2926C15.4311 10.8365 16.1744 10.8365 16.6329 11.2926C17.0913 11.7487 17.0913 12.4881 16.6329 12.9442L12.4823 17.0732C12.0238 17.5293 11.2805 17.5293 10.822 17.0732C10.3636 16.6172 10.3636 15.8777 10.822 15.4216L14.9726 11.2926Z"/><path fill="#FE405A" d="M26.5976 22.8551C27.0561 22.399 27.7994 22.399 28.2579 22.8551C28.7163 23.3112 28.7163 24.0506 28.2579 24.5067L24.1073 28.6357C23.6488 29.0918 22.9055 29.0918 22.447 28.6357C21.9886 28.1797 21.9886 27.4402 22.447 26.9841L26.5976 22.8551Z"/><path fill="#FE405A" d="M25.9414 17.6598C26.3998 17.2037 27.1431 17.2037 27.6016 17.6598C28.0601 18.1159 28.0601 18.8553 27.6016 19.3114L19.0367 27.8318C18.5782 28.2879 17.8349 28.2879 17.3764 27.8318C16.918 27.3758 16.918 26.6363 17.3764 26.1802L25.9414 17.6598Z"/><path fill="#D9D9D9" d="M28.5584 10.9733L27.1057 16.1346L23.3702 12.4185L28.5584 10.9733Z"/></svg>